<mxfile host="app.diagrams.net" modified="2022-08-05T10:43:27.312Z" agent="5.0 (Windows NT 10.0; Win64; x64) AppleWebKit/537.36 (KHTML, like Gecko) Chrome/103.0.5060.134 Safari/537.36 Edg/103.0.1264.77" etag="6LADM_ZTGoSpWqFAfG87" version="20.2.1" type="github">
  <diagram id="muFWI2YQbKJqqir9vf3W" name="第 1 页">
    <mxGraphModel dx="1761" dy="965" grid="1" gridSize="10" guides="1" tooltips="1" connect="1" arrows="1" fold="1" page="1" pageScale="1" pageWidth="827" pageHeight="1169" math="0" shadow="0">
      <root>
        <mxCell id="0" />
        <mxCell id="1" parent="0" />
        <mxCell id="YnFe4m5uUSCdLdCXQnbP-1" value="sdk" style="rounded=1;whiteSpace=wrap;html=1;fontSize=16;" vertex="1" parent="1">
          <mxGeometry x="270" y="300" width="120" height="60" as="geometry" />
        </mxCell>
        <mxCell id="YnFe4m5uUSCdLdCXQnbP-2" value="nginx" style="rounded=1;whiteSpace=wrap;html=1;fontSize=16;" vertex="1" parent="1">
          <mxGeometry x="270" y="400" width="120" height="60" as="geometry" />
        </mxCell>
        <mxCell id="YnFe4m5uUSCdLdCXQnbP-3" value="im_pushagentv2_d" style="rounded=1;whiteSpace=wrap;html=1;fontSize=16;" vertex="1" parent="1">
          <mxGeometry x="210" y="510" width="180" height="60" as="geometry" />
        </mxCell>
        <mxCell id="YnFe4m5uUSCdLdCXQnbP-6" value="push_server_d" style="rounded=1;whiteSpace=wrap;html=1;fontSize=16;" vertex="1" parent="1">
          <mxGeometry x="60" y="670" width="120" height="60" as="geometry" />
        </mxCell>
        <mxCell id="YnFe4m5uUSCdLdCXQnbP-7" value="实时(kafka)" style="endArrow=classic;html=1;rounded=0;fontSize=16;entryX=0.625;entryY=-0.055;entryDx=0;entryDy=0;entryPerimeter=0;" edge="1" parent="1" target="YnFe4m5uUSCdLdCXQnbP-6">
          <mxGeometry width="50" height="50" relative="1" as="geometry">
            <mxPoint x="195" y="590" as="sourcePoint" />
            <mxPoint x="240" y="590" as="targetPoint" />
          </mxGeometry>
        </mxCell>
        <mxCell id="YnFe4m5uUSCdLdCXQnbP-8" value="上报日志,SaveLog(kafka)" style="endArrow=classic;html=1;rounded=0;fontSize=16;entryX=0.14;entryY=-0.074;entryDx=0;entryDy=0;entryPerimeter=0;" edge="1" parent="1" target="YnFe4m5uUSCdLdCXQnbP-9">
          <mxGeometry x="0.6074" y="46" width="50" height="50" relative="1" as="geometry">
            <mxPoint x="250" y="590" as="sourcePoint" />
            <mxPoint x="290" y="670" as="targetPoint" />
            <mxPoint x="1" as="offset" />
          </mxGeometry>
        </mxCell>
        <mxCell id="YnFe4m5uUSCdLdCXQnbP-9" value="push_log_d" style="rounded=1;whiteSpace=wrap;html=1;fontSize=16;" vertex="1" parent="1">
          <mxGeometry x="260" y="670" width="120" height="60" as="geometry" />
        </mxCell>
        <mxCell id="YnFe4m5uUSCdLdCXQnbP-11" value="定时(kafka)" style="endArrow=classic;html=1;rounded=0;fontSize=16;exitX=0.833;exitY=1;exitDx=0;exitDy=0;exitPerimeter=0;entryX=0.25;entryY=0;entryDx=0;entryDy=0;" edge="1" parent="1" source="YnFe4m5uUSCdLdCXQnbP-3" target="YnFe4m5uUSCdLdCXQnbP-13">
          <mxGeometry width="50" height="50" relative="1" as="geometry">
            <mxPoint x="300" y="600" as="sourcePoint" />
            <mxPoint x="480" y="680" as="targetPoint" />
          </mxGeometry>
        </mxCell>
        <mxCell id="YnFe4m5uUSCdLdCXQnbP-13" value="??" style="rounded=1;whiteSpace=wrap;html=1;fontSize=16;" vertex="1" parent="1">
          <mxGeometry x="430" y="670" width="120" height="60" as="geometry" />
        </mxCell>
      </root>
    </mxGraphModel>
  </diagram>
</mxfile>
